<svg fill="none" height="64" viewBox="0 0 64 64" width="64" xmlns="http://www.w3.org/2000/svg"><g clip-rule="evenodd" fill="#cef" fill-rule="evenodd"><path d="m43.7084 24c-1.6609-1.4659-2.7084-3.6106-2.7084-6 0-4.4183 3.5817-8 8-8s8 3.5817 8 8-3.5817 8-8 8h-44v-2z"/><path d="m56 32c2.7614 0 5 2.2386 5 5s-2.2386 5-5 5-5-2.2386-5-5c0-1.1256.3719-2.1643.9996-3h-48.9996v-2z"/><path d="m30 44c2.7614 0 5 2.2386 5 5s-2.2386 5-5 5-5-2.2386-5-5c0-1.1256.3719-2.1643.9996-3h-18.9996v-2z"/><path d="m42 38c1.6569 0 3 1.3431 3 3s-1.3431 3-3 3-3-1.3431-3-3c0-.3506.0602-.6872.1707-1h-34.1707v-2z"/><path d="m30.1707 18c-.1105-.3128-.1707-.6494-.1707-1 0-1.6569 1.3431-3 3-3s3 1.3431 3 3-1.3431 3-3 3h-26v-2z"/></g><path d="m25 49c0 2.762 2.238 5 5 5s5-2.238 5-5-2.238-5-5-5h-23m44-7c0 2.762 2.238 5 5 5s5-2.238 5-5-2.238-5-5-5h-53m4-12h26.123c1.657 0 2.877-1.344 2.877-3s-1.22-3-2.877-3c-.83 0-1.58.336-2.123.88m8.877 28.24c.543.544 1.293.88 2.123.88 1.657 0 3-1.344 3-3s-1.343-3-3-3h-37m36-20c0-4.418 3.582-8 8-8 3.866 0 8 3.582 8 8s-4.134 8-8 8h-44" stroke="#12131a" stroke-linecap="round" stroke-linejoin="round"/></svg>